<svg id="SvgjsSvg1011" width="288" height="288" xmlns="http://www.w3.org/2000/svg" version="1.1" xmlns:xlink="http://www.w3.org/1999/xlink" xmlns:svgjs="http://svgjs.com/svgjs"><defs id="SvgjsDefs1012"></defs><g id="SvgjsG1013"><svg xmlns="http://www.w3.org/2000/svg" fill="none" viewBox="0 0 24 24" width="288" height="288"><path fill="#d10909" d="M15 3a1 1 0 0 1 1 1h2a1 1 0 1 1 0 2H6a1 1 0 0 1 0-2h2a1 1 0 0 1 1-1h6Z" class="color000 svgShape"></path><path fill="#d10909" fill-rule="evenodd" d="M6 7h12v12a2 2 0 0 1-2 2H8a2 2 0 0 1-2-2V7Zm3.5 2a.5.5 0 0 0-.5.5v9a.5.5 0 0 0 1 0v-9a.5.5 0 0 0-.5-.5Zm5 0a.5.5 0 0 0-.5.5v9a.5.5 0 0 0 1 0v-9a.5.5 0 0 0-.5-.5Z" clip-rule="evenodd" class="color000 svgShape"></path></svg></g></svg>